<svg xmlns="http://www.w3.org/2000/svg" xmlns:xlink="http://www.w3.org/1999/xlink" width="1em" height="1em" preserveAspectRatio="xMidYMid meet" viewBox="0 0 48 48" style="-ms-transform: rotate(360deg); -webkit-transform: rotate(360deg); transform: rotate(360deg);"><path fill="currentColor" fill-rule="evenodd" d="M7 38a3 3 0 0 1-3-3V13a3 3 0 0 1 3-3h34a3 3 0 0 1 3 3v22a3 3 0 0 1-3 3H7ZM6 13a1 1 0 0 1 1-1h34a1 1 0 0 1 1 1v3H6v-3Zm1 23a1 1 0 0 1-1-1V24h36v11a1 1 0 0 1-1 1H7Z" clip-rule="evenodd"/></svg>