<?xml version="1.0" encoding="utf-8"?>
<!-- Generator: Adobe Illustrator 16.0.0, SVG Export Plug-In . SVG Version: 6.00 Build 0)  -->
<!DOCTYPE svg PUBLIC "-//W3C//DTD SVG 1.1//EN" "http://www.w3.org/Graphics/SVG/1.1/DTD/svg11.dtd">
<svg version="1.1" id="Layer_1" xmlns="http://www.w3.org/2000/svg" xmlns:xlink="http://www.w3.org/1999/xlink" x="0px" y="0px"
	 width="240.816px" height="47.634px" viewBox="0 0 240.816 47.634" enable-background="new 0 0 240.816 47.634"
	 xml:space="preserve">
<g>
	<defs>
		<rect id="SVGID_1_" width="240.816" height="47.634"/>
	</defs>
	<clipPath id="SVGID_2_">
		<use xlink:href="#SVGID_1_"  overflow="visible"/>
	</clipPath>
	<path clip-path="url(#SVGID_2_)" fill-rule="evenodd" clip-rule="evenodd" fill="#333333" d="M115.317,1.45
		c-2.626,0-4.664,1.825-6.117,5.481L93.102,47.635h-0.845L73.91,6.721c-1.591-3.514-3.75-5.271-6.47-5.271V0.112h18.7V1.45
		c-3.377,0-5.157,0.702-5.342,2.108c0,0.889,0.185,1.757,0.56,2.6l13.019,29.196l10.815-27.158c0.562-1.406,0.845-2.788,0.845-4.146
		c0-0.655-0.446-1.243-1.338-1.758c-1.03-0.562-2.295-0.842-3.796-0.842V0.112h14.414V1.45z"/>
	<path clip-path="url(#SVGID_2_)" fill-rule="evenodd" clip-rule="evenodd" fill="#333333" d="M68.417,46.649H47.466v-1.337
		c4.596,0,6.89-1.57,6.89-4.708V6.018c0-3.044-2.294-4.567-6.89-4.567V0.111h20.951v1.339c-4.595,0-6.889,1.523-6.889,4.567v34.587
		c0,3.138,2.294,4.708,6.889,4.708V46.649z"/>
	<path clip-path="url(#SVGID_2_)" fill-rule="evenodd" clip-rule="evenodd" fill="#333333" d="M47.874,1.45
		c-2.623,0-4.661,1.825-6.113,5.481L25.659,47.635h-0.842L6.468,6.721C4.876,3.208,2.72,1.45,0,1.45V0.112h18.703V1.45
		c-3.376,0-5.159,0.702-5.346,2.108c0,0.889,0.187,1.757,0.566,2.6l13.014,29.196L37.75,8.196c0.565-1.406,0.845-2.788,0.845-4.146
		c0-0.655-0.444-1.243-1.335-1.758C36.229,1.73,34.962,1.45,33.461,1.45V0.112h14.413V1.45z"/>
	<path clip-path="url(#SVGID_2_)" fill-rule="evenodd" clip-rule="evenodd" fill="#333333" d="M149.905,46.413h-17.923v-1.304
		c3.376,0,5.027-0.848,4.991-2.553c-0.013-0.549-0.21-1.378-0.652-2.483l-4.638-11.466h-0.098l-8.05-18.742l-7.989,18.917h-0.027
		l-4.205,10.01c-0.517,1.235-0.889,2.285-0.913,3.158c-0.068,2.104,1.639,3.159,4.921,3.159v1.304h-13.994v-1.304
		c2.629,0,4.899-2.242,6.822-6.729L124.673,0h1.477l18.205,40.853c1.267,2.838,3.115,4.257,5.551,4.257V46.413z"/>
	<path clip-path="url(#SVGID_2_)" fill-rule="evenodd" clip-rule="evenodd" fill="#333333" d="M194.782,46.553h-11.456
		l-18.402-24.221l-0.089-0.006c9.327-0.407,13.987-3.627,13.987-9.657c0-6.654-3.938-9.981-11.805-9.981
		c-1.405,0-2.298,0.047-2.673,0.14c-1.077,0.327-1.618,1.149-1.618,2.459v16.909l-0.009-0.002l0.009,18.663
		c0.003,2.902,2.088,4.36,6.259,4.36v1.336h-19.613v-1.336c4.119,0,6.181-1.571,6.181-4.709V5.922c0-1.547-0.396-2.673-1.189-3.375
		c-0.94-0.797-2.599-1.195-4.991-1.195V0.017h20.104c4.825,0,8.742,0.844,11.742,2.53c3.748,2.108,5.617,5.412,5.617,9.912
		c0.009,6.373-4.235,10.287-12.721,11.739l13.643,16.799c2.294,2.813,4.636,4.22,7.025,4.22V46.553z"/>
	<path clip-path="url(#SVGID_2_)" fill-rule="evenodd" clip-rule="evenodd" fill="#333333" d="M240.816,46.436H222.89v-1.301
		c3.375,0,5.026-0.84,4.987-2.538c-0.006-0.546-0.21-1.372-0.652-2.473l-4.634-11.412h-0.098l-8.054-18.66l-7.985,18.834h-0.027
		l-4.205,9.964c-0.514,1.228-0.887,2.272-0.912,3.142c-0.071,2.095,1.637,3.144,4.916,3.144v1.301h-13.986v-1.301
		c2.622,0,4.897-2.231,6.816-6.696L215.58,0.234h1.474l18.211,40.663c1.267,2.828,3.117,4.237,5.552,4.237V46.436z"/>
</g>
</svg>
